<?xml version="1.0" encoding="iso-8859-1"?>
<!-- Generator: Adobe Illustrator 19.0.0, SVG Export Plug-In . SVG Version: 6.00 Build 0)  -->
<svg xmlns="http://www.w3.org/2000/svg" xmlns:xlink="http://www.w3.org/1999/xlink" version="1.1" id="Capa_1" x="0px" y="0px" viewBox="0 0 163.712 163.712" style="enable-background:new 0 0 163.712 163.712;" xml:space="preserve" width="512px" height="512px">
<g>
	<g>
		<path d="M123.362,163.712H17.281c-1.095,0-2.138-0.475-2.859-1.299c-0.724-0.817-1.054-1.916-0.91-3    l7.689-58.155l-7.693-59.885c-0.137-1.084,0.197-2.176,0.917-2.992c0.724-0.824,1.764-1.292,2.855-1.292h106.081    c1.092,0,2.131,0.468,2.855,1.292c0.72,0.817,1.054,1.908,0.917,2.992l-6.712,52.2c-0.267,2.087-2.09,3.601-4.258,3.289    c-2.083-0.267-3.553-2.176-3.286-4.255l6.163-47.915H21.602l7.206,56.091c0.041,0.327,0.041,0.653-0.004,0.98l-7.188,54.346    h97.405l-0.111-0.846c-0.278-2.079,1.188-3.987,3.267-4.27c2.075-0.267,3.995,1.188,4.27,3.275l0.683,5.146    c0.145,1.084-0.186,2.176-0.91,3C125.5,163.237,124.457,163.712,123.362,163.712z" fill="#9effd3"/>
		<path d="M106.284,55.036c-2.101,0-3.802-1.7-3.802-3.802c0-24.058-14.427-43.631-32.163-43.631    S38.157,27.177,38.157,51.234c0,2.101-1.7,3.802-3.802,3.802s-3.802-1.7-3.802-3.802C30.553,22.981,48.393,0,70.319,0    s39.766,22.981,39.766,51.234C110.086,53.336,108.385,55.036,106.284,55.036z" fill="#9effd3"/>
	</g>
	<g>
		<path d="M121.847,152.181c-15.649,0-28.379-12.734-28.379-28.387c0-15.645,12.731-28.379,28.379-28.379    c15.652,0,28.387,12.734,28.387,28.379C150.234,139.447,137.5,152.181,121.847,152.181z M121.847,103.018    c-11.457,0-20.776,9.319-20.776,20.776s9.319,20.783,20.776,20.783c11.461,0,20.783-9.326,20.783-20.783    S133.308,103.018,121.847,103.018z" fill="#9effd3"/>
		<g>
			<path d="M121.855,137.516c-2.101,0-3.802-1.7-3.802-3.802v-19.84c0-2.101,1.7-3.802,3.802-3.802     c2.101,0,3.802,1.7,3.802,3.802v19.84C125.656,135.816,123.956,137.516,121.855,137.516z" fill="#9effd3"/>
			<path d="M131.767,127.596h-19.837c-2.101,0-3.802-1.7-3.802-3.802s1.7-3.802,3.802-3.802h19.837     c2.101,0,3.802,1.7,3.802,3.802S133.869,127.596,131.767,127.596z" fill="#9effd3"/>
		</g>
	</g>
</g>
<g>
</g>
<g>
</g>
<g>
</g>
<g>
</g>
<g>
</g>
<g>
</g>
<g>
</g>
<g>
</g>
<g>
</g>
<g>
</g>
<g>
</g>
<g>
</g>
<g>
</g>
<g>
</g>
<g>
</g>
</svg>
