<?xml version="1.0" encoding="iso-8859-1"?>
<!-- Generator: Adobe Illustrator 19.0.0, SVG Export Plug-In . SVG Version: 6.00 Build 0)  -->
<svg xmlns="http://www.w3.org/2000/svg" xmlns:xlink="http://www.w3.org/1999/xlink" version="1.1" id="Capa_1" x="0px" y="0px" viewBox="0 0 511.998 511.998" style="enable-background:new 0 0 511.998 511.998;" xml:space="preserve" width="512px" height="512px">
<g>
	<g>
		<g>
			<path d="M329.741,269.472c0-32.753-15.287-61.999-39.097-80.99c7.025-11.467,11.082-24.94,11.082-39.345     c0-41.656-33.89-75.546-75.546-75.546s-75.547,33.89-75.547,75.546c0,14.37,4.036,27.814,11.03,39.264     c-6.723,5.381-12.844,11.651-18.199,18.748c-3.326,4.409-2.449,10.68,1.959,14.006c4.409,3.327,10.679,2.448,14.006-1.959     c4.362-5.781,9.353-10.883,14.837-15.253c13.548,12.84,31.82,20.741,51.915,20.741c20.059,0,38.303-7.874,51.844-20.674     c19.303,15.32,31.718,38.961,31.718,65.462v38.714c0,11.378-9.256,20.634-20.633,20.634H163.251     c-11.378,0-20.634-9.256-20.634-20.634v-27.077c0-5.522-4.478-10-10-10c-5.522,0-10,4.478-10,10v27.077     c0,22.405,18.229,40.634,40.634,40.634h125.857c22.405,0,40.633-18.229,40.633-40.634V269.472z M273.875,177.568     c-3.596,6.01-8.297,11.282-13.818,15.545c-9.384,7.246-21.131,11.571-33.877,11.571c-12.782,0-24.561-4.351-33.958-11.635     c-5.513-4.272-10.203-9.553-13.789-15.57c-4.948-8.303-7.8-17.994-7.8-28.342c0-30.628,24.918-55.546,55.547-55.546     c30.628,0,55.546,24.918,55.546,55.546C281.726,159.521,278.854,169.245,273.875,177.568z" fill="#9effd3"/>
			<path d="M126.39,249.688c0.25,0.61,0.561,1.19,0.92,1.73c0.36,0.55,0.78,1.06,1.24,1.52c0.46,0.46,0.97,0.88,1.52,1.24     c0.54,0.36,1.12,0.67,1.73,0.92c0.6,0.25,1.23,0.45,1.87,0.57c0.64,0.13,1.3,0.2,1.95,0.2c0.66,0,1.31-0.07,1.96-0.2     c0.64-0.12,1.26-0.32,1.87-0.57c0.6-0.25,1.18-0.56,1.72-0.92c0.55-0.36,1.06-0.78,1.52-1.24c0.46-0.46,0.88-0.97,1.25-1.52     c0.36-0.54,0.67-1.12,0.92-1.73c0.25-0.6,0.44-1.229,0.57-1.87c0.13-0.64,0.19-1.3,0.19-1.949c0-0.65-0.061-1.311-0.19-1.96     c-0.13-0.631-0.32-1.261-0.57-1.87c-0.25-0.601-0.56-1.181-0.92-1.721c-0.37-0.55-0.79-1.06-1.25-1.52     c-0.46-0.46-0.97-0.88-1.52-1.24c-0.54-0.359-1.12-0.67-1.72-0.92c-0.61-0.25-1.23-0.45-1.87-0.58c-1.29-0.26-2.62-0.26-3.91,0     c-0.64,0.13-1.271,0.33-1.87,0.58c-0.61,0.25-1.19,0.561-1.73,0.92c-0.55,0.36-1.06,0.78-1.52,1.24     c-0.46,0.46-0.88,0.97-1.24,1.52c-0.359,0.54-0.67,1.12-0.92,1.721c-0.25,0.609-0.439,1.239-0.57,1.87     c-0.13,0.649-0.199,1.31-0.199,1.96c0,0.649,0.069,1.31,0.199,1.949C125.95,248.46,126.14,249.089,126.39,249.688z" fill="#9effd3"/>
			<path d="M484.767,347.044h-43.83v-43.829c0-12.836-8.929-23.618-20.899-26.482V72.351c0-30.329-24.674-55.003-55.003-55.003     H87.325c-30.329,0-55.004,24.674-55.004,55.003v31.476C14.473,103.982,0,118.545,0,136.43c0,17.885,14.473,32.446,32.321,32.603     v84.345C14.473,253.535,0,268.096,0,285.98c0,17.884,14.473,32.446,32.321,32.603v31.476c0,30.329,24.675,55.003,55.004,55.003     h207.44c3.641,10.757,13.826,18.525,25.797,18.525h43.83v43.83c0,15.017,12.217,27.233,27.233,27.233h22.077     c15.017,0,27.233-12.217,27.233-27.233v-43.83h43.83c15.017,0,27.233-12.217,27.233-27.233v-22.078     C512,359.26,499.783,347.044,484.767,347.044z M20,136.43c0-6.856,5.502-12.441,12.321-12.597     c0.097-0.002,0.191-0.015,0.289-0.015h19.711H63.39c6.953,0,12.61,5.657,12.61,12.611c0,6.953-5.657,12.61-12.61,12.61H52.321     H32.61c-0.098,0-0.192-0.013-0.289-0.015C25.502,148.87,20,143.286,20,136.43z M32.61,298.589c-0.098,0-0.192-0.013-0.289-0.015     C25.502,298.42,20,292.836,20,285.98c0-6.855,5.502-12.44,12.321-12.596c0.097-0.002,0.191-0.015,0.289-0.015h19.711H63.39     c6.953,0,12.61,5.657,12.61,12.61c0,6.953-5.657,12.61-12.61,12.61H52.321H32.61z M293.329,374.276v10.786H87.325     c-19.301,0-35.004-15.702-35.004-35.003v-31.469H63.39c17.981,0,32.61-14.629,32.61-32.61s-14.629-32.61-32.61-32.61H52.321     v-84.33H63.39c17.981,0,32.61-14.629,32.61-32.61c0-17.982-14.629-32.611-32.61-32.611H52.321V72.351     c0-19.301,15.703-35.003,35.004-35.003h277.709c19.301,0,35.003,15.702,35.003,35.003v203.631h-8.411     c-15.017,0-27.233,12.217-27.233,27.233v43.829h-43.83C305.546,347.044,293.329,359.26,293.329,374.276z M492,396.354     L492,396.354c0,3.988-3.245,7.233-7.233,7.233h-53.83c-5.522,0-10,4.478-10,10v53.83c0,3.988-3.245,7.233-7.233,7.233h-22.077     c-3.988,0-7.233-3.245-7.233-7.233v-53.83c0-4.771-3.345-8.757-7.817-9.754c-0.704-0.157-1.432-0.246-2.183-0.246h-53.83     c-3.988,0-7.233-3.245-7.233-7.233v-11.292v-10.786c0-3.988,3.245-7.233,7.233-7.233h53.83c5.522,0,10-4.478,10-10v-53.829     c0-3.988,3.245-7.233,7.233-7.233h8.411h13.666c2.725,0,5.101,1.516,6.334,3.747c0.572,1.035,0.899,2.223,0.899,3.486v53.829     c0,5.522,4.478,10,10,10h53.83c3.988,0,7.233,3.245,7.233,7.233V396.354z" fill="#9effd3"/>
		</g>
	</g>
</g>
<g>
</g>
<g>
</g>
<g>
</g>
<g>
</g>
<g>
</g>
<g>
</g>
<g>
</g>
<g>
</g>
<g>
</g>
<g>
</g>
<g>
</g>
<g>
</g>
<g>
</g>
<g>
</g>
<g>
</g>
</svg>
