<?xml version="1.0" encoding="iso-8859-1"?>
<!-- Generator: Adobe Illustrator 19.0.0, SVG Export Plug-In . SVG Version: 6.00 Build 0)  -->
<svg xmlns="http://www.w3.org/2000/svg" xmlns:xlink="http://www.w3.org/1999/xlink" version="1.1" id="Capa_1" x="0px" y="0px" viewBox="0 0 486.86 486.86" style="enable-background:new 0 0 486.86 486.86;" xml:space="preserve" width="512px" height="512px">
<g>
	<g>
		<path d="M460.692,213.208c-7.798-7.659-16.943-13.813-26.976-18.152c-2.633-19.12-11.536-36.826-25.312-50.344    c-21.837-21.406-53.042-30.272-82.872-23.544c-4.502-10.474-10.983-19.982-19.088-28c-21.936-21.428-53.228-30.295-83.144-23.56    c-37.286,8.748-64.853,40.28-68.544,78.4c-16.161-12.106-38.735-10.626-53.176,3.488c-9.461,9.389-13.589,22.894-10.992,35.968    h-0.504c-41.685-0.444-78.155,27.956-87.936,68.48c-6.664,29.574,2.41,60.494,24,81.776c16.785,16.575,39.45,25.831,63.04,25.744    h17.064c4.418,0,8-3.582,8-8s-3.582-8-8-8H89.188c-19.36,0.064-37.959-7.535-51.736-21.136    c-17.687-17.425-25.128-42.745-19.68-66.968c8.146-33.199,38.132-56.378,72.312-55.896h11.936    c4.418,0.004,8.003-3.574,8.008-7.992c0.001-1.407-0.368-2.789-1.072-4.008c-5.321-9.299-3.733-21.013,3.872-28.56    c9.642-9.447,25.07-9.447,34.712,0l9.096,8.96c3.147,3.102,8.212,3.065,11.313-0.081c1.471-1.493,2.298-3.503,2.303-5.599v-8.44    c-0.409-34.365,23.019-64.438,56.44-72.448c24.636-5.6,50.431,1.667,68.52,19.304c8.11,8.031,14.221,17.855,17.84,28.68    c1.379,4.127,5.804,6.395,9.96,5.104c26.099-8.21,54.599-1.394,74.16,17.736c12.143,11.838,19.625,27.648,21.08,44.544    c-0.003,3.335,2.063,6.322,5.184,7.496c9.735,3.583,18.601,9.186,26.016,16.44c17.675,17.431,25.098,42.753,19.632,66.968    c-8.143,33.2-38.131,56.381-72.312,55.896h-18.52c-4.418,0-8,3.582-8,8s3.582,8,8,8h18.52    c41.686,0.449,78.159-27.948,87.944-68.472C491.375,265.411,482.292,234.488,460.692,213.208z" fill="#9effd3"/>
	</g>
</g>
<g>
	<g>
		<path d="M242.252,211.464c-61.648,0-128,12.512-128,40v128c0,27.488,66.352,40,128,40s128-12.512,128-40v-128    C370.252,223.976,303.9,211.464,242.252,211.464z M354.252,379.464c0,7.2-38.104,24-112,24s-112-16.8-112-24v-11.32    c23.368,13.144,68.8,19.32,112,19.32s88.632-6.176,112-19.32V379.464z M354.252,347.464c0,7.2-38.104,24-112,24s-112-16.8-112-24    v-11.32c23.368,13.144,68.8,19.32,112,19.32s88.632-6.176,112-19.32V347.464z M354.252,315.464c0,7.2-38.104,24-112,24    s-112-16.8-112-24v-11.32c23.368,13.144,68.8,19.32,112,19.32s88.632-6.176,112-19.32V315.464z M354.252,283.464    c0,7.2-38.104,24-112,24s-112-16.8-112-24v-11.32c23.368,13.144,68.8,19.32,112,19.32s88.632-6.176,112-19.32V283.464z     M242.252,275.464c-73.896,0-112-16.8-112-24s38.104-24,112-24s112,16.8,112,24S316.148,275.464,242.252,275.464z" fill="#9effd3"/>
	</g>
</g>
<g>
</g>
<g>
</g>
<g>
</g>
<g>
</g>
<g>
</g>
<g>
</g>
<g>
</g>
<g>
</g>
<g>
</g>
<g>
</g>
<g>
</g>
<g>
</g>
<g>
</g>
<g>
</g>
<g>
</g>
</svg>
