<?xml version="1.0" encoding="iso-8859-1"?>
<!-- Generator: Adobe Illustrator 19.0.0, SVG Export Plug-In . SVG Version: 6.00 Build 0)  -->
<svg version="1.1" id="Layer_1" xmlns="http://www.w3.org/2000/svg" xmlns:xlink="http://www.w3.org/1999/xlink" x="0px" y="0px"
	 viewBox="0 0 512 512" style="enable-background:new 0 0 512 512;" xml:space="preserve">
<g>
	<g>
		<g>
			<path style="fill:#5C546A;" d="M256,128c-4.422,0-8-3.582-8-8V72c0-4.418,3.578-8,8-8s8,3.582,8,8v48
				C264,124.418,260.421,128,256,128z"/>
		</g>
	</g>
	<g>
		<path style="fill:#868491;" d="M256,0c-13.234,0-24,10.766-24,24v40c0,13.234,10.766,24,24,24c13.234,0,24-10.766,24-24V24
			C280,10.766,269.234,0,256,0z"/>
	</g>
	<g>
		<g>
			<path style="fill:#5C546A;" d="M256,464c-4.422,0-8-3.582-8-8v-40c0-4.418,3.578-8,8-8s8,3.582,8,8v40
				C264,460.418,260.421,464,256,464z"/>
		</g>
	</g>
	<g>
		<path style="fill:#FFE671;" d="M443.459,424c6.27,0,10.029-6.837,6.754-12.184C433.644,384.77,424,369.043,424,335v-58.974
			c0-91.095-70.836-168.68-161.874-171.917C166.55,100.711,88,177.182,88,272v63c0,34.043-9.644,49.771-26.213,76.816
			C58.511,417.163,62.27,424,68.541,424H443.459z"/>
	</g>
	<g>
		<circle style="fill:#FFCD00;" cx="256" cy="480" r="32"/>
	</g>
	<g>
		<path style="fill:#FFCD00;" d="M255.781,104.047C163.103,104.171,88,179.293,88,272v63c0,34.043-9.645,49.771-26.213,76.816
			C58.511,417.162,62.27,424,68.541,424h187.24V104.047z"/>
	</g>
	<g>
		<circle style="fill:#FFFFFF;" cx="327.781" cy="208" r="40"/>
	</g>
	<g>
		<path style="fill:#FFE671;" d="M256,448c-0.1,0-0.193,0.029-0.292,0.029v63.941c0.1,0.001,0.192,0.029,0.292,0.029
			c17.673,0,32-14.327,32-32C288,462.327,273.673,448,256,448z"/>
	</g>
	<g>
		<path style="fill:#FF9100;" d="M61.787,411.816C58.511,417.162,62.27,424,68.541,424h187.24v-16H64.108
			C63.325,409.283,62.604,410.482,61.787,411.816z"/>
	</g>
	<g>
		<path style="fill:#FFCD00;" d="M449.775,411.816c3.275,5.347-0.483,12.184-6.754,12.184h-187.24v-16h191.672
			C448.236,409.283,448.957,410.482,449.775,411.816z"/>
	</g>
</g>
<g>
</g>
<g>
</g>
<g>
</g>
<g>
</g>
<g>
</g>
<g>
</g>
<g>
</g>
<g>
</g>
<g>
</g>
<g>
</g>
<g>
</g>
<g>
</g>
<g>
</g>
<g>
</g>
<g>
</g>
</svg>
