<?xml version="1.0" encoding="iso-8859-1"?>
<!-- Generator: Adobe Illustrator 19.0.0, SVG Export Plug-In . SVG Version: 6.00 Build 0)  -->
<svg version="1.1" id="Capa_1" xmlns="http://www.w3.org/2000/svg" xmlns:xlink="http://www.w3.org/1999/xlink" x="0px" y="0px"
	 viewBox="0 0 512 512" style="enable-background:new 0 0 512 512;" xml:space="preserve">
<path style="fill:#415A6B;" d="M361.6,126.933c0,65.067-50.133,157.867-112,157.867S136.533,192,136.533,126.933
	C136.533,33.067,186.667,0,248.533,0C311.467,0,361.6,33.067,361.6,126.933z"/>
<g>
	<path style="fill:#FFD15C;" d="M266.667,66.133c-20.267,28.8-52.267,50.133-97.067,50.133c-4.267,0-8.533,0-12.8-1.067
		c-6.4,17.067-9.6,36.267-9.6,55.467c0,73.6,45.867,133.333,101.333,133.333s101.333-59.733,101.333-133.333
		c0-27.733-6.4-54.4-18.133-75.733C305.067,91.733,282.667,81.067,266.667,66.133z"/>
	<path style="fill:#FFD15C;" d="M369.067,179.2c-3.2,22.4-14.933,38.4-26.667,35.2c-11.733-2.133-18.133-22.4-14.933-44.8
		s14.933-38.4,26.667-35.2C365.867,136.533,372.267,156.8,369.067,179.2z"/>
	<path style="fill:#FFD15C;" d="M129.067,179.2c3.2,22.4,14.933,38.4,26.667,35.2s18.133-22.4,14.933-44.8S155.733,131.2,144,134.4
		C132.267,136.533,125.867,156.8,129.067,179.2z"/>
</g>
<g>
	<path style="fill:#415A6B;" d="M164.267,323.2L248.533,512H0C0,396.8,68.267,341.333,164.267,323.2z"/>
	<path style="fill:#415A6B;" d="M498.133,512h-249.6L332.8,323.2C429.867,341.333,498.133,396.8,498.133,512z"/>
</g>
<path style="fill:#F3F3F3;" d="M248.533,315.733c-29.867,0-58.667,2.133-84.267,7.467L248.533,512L332.8,323.2
	C307.2,317.867,278.4,315.733,248.533,315.733z"/>
<g>
	<polygon style="fill:#66C6B9;" points="263.467,370.133 281.6,349.867 248.533,315.733 216.533,349.867 234.667,370.133 	"/>
	<polygon style="fill:#66C6B9;" points="218.667,443.733 248.533,512 279.467,443.733 263.467,370.133 234.667,370.133 	"/>
</g>
<circle style="fill:#F3705A;" cx="402.133" cy="402.133" r="109.867"/>
<path style="fill:#F3F3F3;" d="M476.8,402.133c0,10.667-8.533,19.2-18.133,19.2h-37.333v37.333c0,10.667-8.533,18.133-18.133,18.133
	c-10.667,0-18.133-8.533-18.133-18.133v-37.333h-37.333c-10.667,0-18.133-8.533-18.133-19.2c0-10.667,8.533-18.133,18.133-18.133
	h37.333v-37.333c0-10.667,8.533-19.2,18.133-19.2c10.667,0,18.133,8.533,18.133,19.2V384h37.333
	C468.267,382.933,476.8,391.467,476.8,402.133z"/>
<g>
</g>
<g>
</g>
<g>
</g>
<g>
</g>
<g>
</g>
<g>
</g>
<g>
</g>
<g>
</g>
<g>
</g>
<g>
</g>
<g>
</g>
<g>
</g>
<g>
</g>
<g>
</g>
<g>
</g>
</svg>
