<?xml version="1.0" encoding="iso-8859-1"?>
<!-- Generator: Adobe Illustrator 19.0.0, SVG Export Plug-In . SVG Version: 6.00 Build 0)  -->
<svg version="1.1" id="Capa_1" xmlns="http://www.w3.org/2000/svg" xmlns:xlink="http://www.w3.org/1999/xlink" x="0px" y="0px"
	 viewBox="0 0 512 512" style="enable-background:new 0 0 512 512;" xml:space="preserve">
<path style="fill:#EFEFEF;" d="M354.999,50v399.344h-250V90h-80V50c0-22.09,17.91-40,40-40h250c11.04,0,21.04,4.48,28.28,11.72
	C350.519,28.96,354.999,38.96,354.999,50z"/>
<path style="fill:#EF938F;" d="M433.586,423.4l-73.28,19.64c-8.27-66.93-42.59-107.05-42.59-107.05L290.726,309l-29.57-29.58
	c-7.81-7.81-7.81-20.47,0-28.28c7.81-7.81,20.47-7.81,28.28,0l60.19,57.86l5.37,5.16V146.97c59,71.47,76.03,184.57,77.72,206.53
	C435.716,392.41,433.586,423.4,433.586,423.4z"/>
<rect x="323.27" y="432.387" transform="matrix(-0.9659 0.2588 -0.2588 -0.9659 911.1373 794.5707)" style="fill:#CCC3BB;" width="159.995" height="49.746"/>
<circle style="fill:#69CBEF;" cx="256.1" cy="379.34" r="30"/>
<path d="M144.996,379.34h29c5.52,0,10-4.48,10-10c0-5.51-4.48-10-10-10h-29c-5.511,0-10,4.49-10,10
	C134.996,374.859,139.485,379.34,144.996,379.34z"/>
<path d="M189.999,399.344h-45c-5.522,0-10,4.478-10,10s4.478,10,10,10h45c5.522,0,10-4.478,10-10S195.521,399.344,189.999,399.344z"
	/>
<path d="M164.999,190c5.514,0,10,4.486,10,10s-4.486,10-10,10c-2.852,0-5.48-1.163-7.4-3.275c-3.718-4.086-10.042-4.386-14.127-0.67
	c-4.086,3.716-4.386,10.041-0.67,14.127c3.361,3.695,7.573,6.448,12.197,8.086V230c0,5.522,4.478,10,10,10s10-4.478,10-10v-1.72
	c11.639-4.128,20-15.243,20-28.28c0-16.542-13.458-30-30-30c-5.514,0-10-4.486-10-10s4.486-10,10-10c2.627,0,5.107,1.01,6.984,2.844
	c3.951,3.858,10.28,3.783,14.142-0.167c3.858-3.951,3.784-10.282-0.167-14.142c-3.164-3.09-6.898-5.4-10.959-6.833V130
	c0-5.522-4.478-10-10-10s-10,4.478-10,10v1.72c-11.639,4.128-20,15.243-20,28.28C134.999,176.542,148.457,190,164.999,190z"/>
<path d="M224.996,140h29c5.52,0,10-4.49,10-10s-4.48-10-10-10h-29c-5.511,0-10,4.49-10,10C214.996,135.51,219.485,140,224.996,140z"
	/>
<path d="M293.996,140c5.52,0,10-4.49,10-10s-4.48-10-10-10c-5.511,0-10,4.49-10,10C283.996,135.51,288.485,140,293.996,140z"/>
<path d="M224.999,180h13c5.522,0,10-4.478,10-10s-4.478-10-10-10h-13c-5.522,0-10,4.478-10,10S219.476,180,224.999,180z"/>
<path d="M314.999,160h-37c-5.522,0-10,4.478-10,10s4.478,10,10,10h37c5.522,0,10-4.478,10-10S320.521,160,314.999,160z"/>
<path d="M224.999,220h45c5.522,0,10-4.478,10-10s-4.478-10-10-10h-45c-5.522,0-10,4.478-10,10S219.476,220,224.999,220z"/>
<path d="M314.999,200h-5c-5.522,0-10,4.478-10,10s4.478,10,10,10h5c5.522,0,10-4.478,10-10S320.521,200,314.999,200z"/>
<path d="M144.999,280h70c5.522,0,10-4.478,10-10s-4.478-10-10-10h-70c-5.522,0-10,4.478-10,10S139.476,280,144.999,280z"/>
<path d="M144.999,320h98.099c5.522,0,10-4.478,10-10s-4.478-10-10-10h-98.099c-5.522,0-10,4.478-10,10S139.476,320,144.999,320z"/>
<path d="M256.097,339.344c-22.056,0-40,17.944-40,40s17.944,40,40,40s40-17.944,40-40S278.153,339.344,256.097,339.344z
	 M256.097,399.344c-11.028,0-20-8.972-20-20s8.972-20,20-20c11.028,0,20,8.972,20,20S267.126,399.344,256.097,399.344z"/>
<path d="M496.658,458.001l-12.875-48.052c-0.687-2.563-2.362-4.746-4.659-6.072c-2.297-1.327-5.027-1.687-7.588-0.999l-27.388,7.339
	c0.334-12.898,0.376-33.645-1.462-57.483c-2.503-32.528-22.139-139.769-77.688-209.301V50c0-13.351-5.202-25.905-14.649-35.352
	S328.347,0,314.999,0h-250c-27.57,0-50,22.43-50,50v40c0,5.522,4.478,10,10,10h70v349.344c0,5.522,4.478,10,10,10h205.67
	l12.123,45.244c0.687,2.563,2.362,4.746,4.659,6.072c1.533,0.886,3.26,1.34,5,1.34c0.867,0,1.736-0.112,2.588-0.341l154.548-41.411
	C494.922,468.818,498.088,463.335,496.658,458.001z M358.915,323.36c3.688-1.57,6.081-5.191,6.081-9.2V178.035
	c16.217,25.841,30.104,57.646,40.764,93.608c11.775,39.724,16.254,73.11,16.985,82.625c2.076,26.918,1.636,50.175,1.209,61.359
	l-55.395,14.843c-10.671-62.292-41.846-99.347-43.244-100.98c-0.168-0.197-33.627-33.676-33.627-33.676l14.164-15.024l42.216,40.581
	C350.959,324.148,355.226,324.933,358.915,323.36z M268.226,272.349c-1.889-1.889-2.929-4.398-2.929-7.068s1.041-5.181,2.93-7.069
	c1.888-1.889,4.398-2.929,7.068-2.929s5.181,1.04,7.068,2.929c0.047,0.046,9.069,8.719,9.069,8.719l-13.892,14.735L268.226,272.349z
	 M34.999,80V50c0-16.542,13.458-30,30-30h210.027c-6.292,8.363-10.027,18.753-10.027,30v30H34.999z M114.999,439.344V100h160
	c5.522,0,10-4.478,10-10V60h30c5.522,0,10-4.478,10-10s-4.478-10-10-10h-28.28c4.128-11.639,15.243-20,28.28-20
	c8.008,0,15.54,3.122,21.209,8.791s8.791,13.201,8.791,21.209l-0.003,240.679l-48.566-46.687c-5.657-5.617-13.158-8.71-21.134-8.71
	c-8.012,0-15.545,3.12-21.211,8.786c-5.666,5.667-8.787,13.199-8.787,21.212s3.121,15.545,8.786,21.21l56.242,56.252
	c2.665,3.251,29.749,37.465,38.806,92.934l-13.688,3.668H114.999z M339.522,489.753l-7.699-28.733l135.229-36.235l7.699,28.733
	L339.522,489.753z"/>
<g>
</g>
<g>
</g>
<g>
</g>
<g>
</g>
<g>
</g>
<g>
</g>
<g>
</g>
<g>
</g>
<g>
</g>
<g>
</g>
<g>
</g>
<g>
</g>
<g>
</g>
<g>
</g>
<g>
</g>
</svg>
