<?xml version="1.0" encoding="iso-8859-1"?>
<!-- Generator: Adobe Illustrator 18.0.0, SVG Export Plug-In . SVG Version: 6.00 Build 0)  -->
<!DOCTYPE svg PUBLIC "-//W3C//DTD SVG 1.1//EN" "http://www.w3.org/Graphics/SVG/1.1/DTD/svg11.dtd">
<svg xmlns="http://www.w3.org/2000/svg" xmlns:xlink="http://www.w3.org/1999/xlink" version="1.1" id="Capa_1" x="0px" y="0px" viewBox="0 0 60 60" style="enable-background:new 0 0 60 60;" xml:space="preserve" width="512px" height="512px">
<g>
	<path d="M55.783,8H4.217C1.892,8,0,9.892,0,12.217v35.566C0,50.108,1.892,52,4.217,52h51.566C58.108,52,60,50.108,60,47.783V12.217   C60,9.892,58.108,8,55.783,8z M58,47.783C58,49.005,57.006,50,55.783,50H4.217C2.994,50,2,49.005,2,47.783V12.217   C2,10.995,2.994,10,4.217,10h51.566C57.006,10,58,10.995,58,12.217V47.783z" fill="#9effd3"/>
	<path d="M6,18h9c0.553,0,1-0.448,1-1s-0.447-1-1-1H6c-0.553,0-1,0.448-1,1S5.447,18,6,18z" fill="#9effd3"/>
	<path d="M28,16h-9c-0.553,0-1,0.448-1,1s0.447,1,1,1h9c0.553,0,1-0.448,1-1S28.553,16,28,16z" fill="#9effd3"/>
	<path d="M6,23h1c0.553,0,1-0.448,1-1s-0.447-1-1-1H6c-0.553,0-1,0.448-1,1S5.447,23,6,23z" fill="#9effd3"/>
	<path d="M11,21c-0.553,0-1,0.448-1,1s0.447,1,1,1h2c0.553,0,1-0.448,1-1s-0.447-1-1-1H11z" fill="#9effd3"/>
	<path d="M19,22c0-0.552-0.447-1-1-1h-1c-0.553,0-1,0.448-1,1s0.447,1,1,1h1C18.553,23,19,22.552,19,22z" fill="#9effd3"/>
	<path d="M24,23c0.553,0,1-0.448,1-1s-0.447-1-1-1h-2c-0.553,0-1,0.448-1,1s0.447,1,1,1H24z" fill="#9effd3"/>
	<path d="M27.29,21.29C27.109,21.48,27,21.74,27,22c0,0.26,0.109,0.52,0.29,0.71C27.479,22.89,27.74,23,28,23   c0.27,0,0.52-0.11,0.71-0.29C28.89,22.52,29,22.26,29,22c0-0.26-0.11-0.52-0.29-0.71C28.33,20.92,27.66,20.92,27.29,21.29z" fill="#9effd3"/>
	<path d="M37,27h18V15H37V27z M39,17h14v8H39V17z" fill="#9effd3"/>
	<path d="M5,45h11v-8H5V45z M7,39h7v4H7V39z" fill="#9effd3"/>
	<path d="M18,45h11v-8H18V45z M20,39h7v4h-7V39z" fill="#9effd3"/>
	<path d="M31,45h11v-8H31V45z M33,39h7v4h-7V39z" fill="#9effd3"/>
	<path d="M44,45h11v-8H44V45z M46,39h7v4h-7V39z" fill="#9effd3"/>
</g>
<g>
</g>
<g>
</g>
<g>
</g>
<g>
</g>
<g>
</g>
<g>
</g>
<g>
</g>
<g>
</g>
<g>
</g>
<g>
</g>
<g>
</g>
<g>
</g>
<g>
</g>
<g>
</g>
<g>
</g>
</svg>
