<?xml version="1.0" encoding="iso-8859-1"?>
<!-- Generator: Adobe Illustrator 19.0.0, SVG Export Plug-In . SVG Version: 6.00 Build 0)  -->
<svg xmlns="http://www.w3.org/2000/svg" xmlns:xlink="http://www.w3.org/1999/xlink" version="1.1" id="Capa_1" x="0px" y="0px" viewBox="0 0 511.999 511.999" style="enable-background:new 0 0 511.999 511.999;" xml:space="preserve" width="512px" height="512px">
<g>
	<g>
		<g>
			<rect x="219.977" y="121.897" width="105.91" height="39.966" fill="#9effd3"/>
			<path d="M40.13,451.618V59.949c0-11.019,8.964-19.983,19.983-19.983H345.76c11.019,0,19.983,8.964,19.983,19.983v195.755     l39.966-41.096V59.949C405.709,26.893,378.816,0,345.76,0H60.113C27.057,0,0.163,26.893,0.163,59.949v391.669     c0,33.056,26.893,59.949,59.949,59.949h152.566l9.088-39.966H60.113C49.094,471.601,40.13,462.637,40.13,451.618z" fill="#9effd3"/>
			<rect x="219.977" y="241.796" width="105.91" height="39.966" fill="#9effd3"/>
			<path d="M426.728,250.321L292.46,388.384c-7.672,7.703-13.534,17.225-16.953,27.545l-0.303,0.915l-21.638,95.156l95.409-21.36     l0.943-0.313c10.373-3.432,19.94-9.328,27.667-17.051l134.249-138.039L426.728,250.321z M349.247,445.095     c-0.747,0.741-1.537,1.44-2.358,2.099l-28.225-28.244c0.677-0.84,1.397-1.647,2.16-2.409l106.332-109.335l28.518,28.454     L349.247,445.095z" fill="#9effd3"/>
			<polygon points="181.008,200.603 132.1,256.076 107.763,233.223 80.405,262.358 134.805,313.442 210.987,227.035    " fill="#9effd3"/>
			<polygon points="181.008,79.706 132.1,135.179 107.763,112.325 80.405,141.46 134.805,192.544 210.987,106.137    " fill="#9effd3"/>
			<polygon points="107.763,353.121 80.405,382.257 134.805,433.341 210.987,346.934 181.008,320.503 132.1,375.976    " fill="#9effd3"/>
		</g>
	</g>
</g>
<g>
</g>
<g>
</g>
<g>
</g>
<g>
</g>
<g>
</g>
<g>
</g>
<g>
</g>
<g>
</g>
<g>
</g>
<g>
</g>
<g>
</g>
<g>
</g>
<g>
</g>
<g>
</g>
<g>
</g>
</svg>
