<?xml version="1.0" encoding="iso-8859-1"?>
<!-- Generator: Adobe Illustrator 16.0.0, SVG Export Plug-In . SVG Version: 6.00 Build 0)  -->
<!DOCTYPE svg PUBLIC "-//W3C//DTD SVG 1.1//EN" "http://www.w3.org/Graphics/SVG/1.1/DTD/svg11.dtd">
<svg xmlns="http://www.w3.org/2000/svg" xmlns:xlink="http://www.w3.org/1999/xlink" version="1.1" id="Capa_1" x="0px" y="0px" width="512px" height="512px" viewBox="0 0 56.805 56.805" style="enable-background:new 0 0 56.805 56.805;" xml:space="preserve">
<g>
	<g id="_x32_7">
		<g>
			<path d="M56.582,4.352c-0.452-1.092-1.505-1.796-2.685-1.796H2.908c-1.18,0-2.233,0.704-2.685,1.796     c-0.451,1.091-0.204,2.336,0.63,3.171l20.177,20.21V53.02c0,0.681,0.55,1.229,1.229,1.229c0.68,0,1.229-0.549,1.229-1.229V27.223     c0-0.327-0.13-0.64-0.36-0.87L2.591,5.782c-0.184-0.185-0.14-0.385-0.098-0.487C2.537,5.19,2.646,5.019,2.908,5.019h50.99     c0.26,0,0.37,0.173,0.414,0.276c0.042,0.103,0.086,0.303-0.099,0.487L33.679,26.353c-0.23,0.23-0.36,0.543-0.36,0.87v18.412     c0,0.681,0.55,1.229,1.229,1.229c0.681,0,1.229-0.55,1.229-1.229V27.732l20.177-20.21C56.785,6.688,57.033,5.443,56.582,4.352z" fill="#9effd3"/>
		</g>
	</g>
</g>
<g>
</g>
<g>
</g>
<g>
</g>
<g>
</g>
<g>
</g>
<g>
</g>
<g>
</g>
<g>
</g>
<g>
</g>
<g>
</g>
<g>
</g>
<g>
</g>
<g>
</g>
<g>
</g>
<g>
</g>
</svg>
