<?xml version="1.0"?>
<svg xmlns="http://www.w3.org/2000/svg" height="512px" version="1.1" viewBox="0 -13 800 800" width="512px">
<g id="surface1">
<path d="M 400 254.46875 C 363.164062 254.46875 333.203125 284.429688 333.203125 321.265625 C 333.203125 358.09375 363.164062 388.0625 400 388.0625 C 436.835938 388.0625 466.796875 358.09375 466.796875 321.265625 C 466.796875 284.429688 436.835938 254.46875 400 254.46875 Z M 400 353.070312 C 382.429688 353.070312 368.195312 338.832031 368.195312 321.265625 C 368.195312 303.691406 382.429688 289.453125 400 289.453125 C 417.5625 289.453125 431.804688 303.691406 431.804688 321.265625 C 431.804688 338.832031 417.5625 353.070312 400 353.070312 Z M 400 353.070312 " style=" fill-rule:nonzero;fill-opacity:1;" stroke="#FFFFFF" fill="#FFFFFF"/>
<path d="M 612.117188 137.109375 L 178.546875 137.109375 L 178.546875 204.117188 L 196.519531 204.117188 C 209.691406 204.117188 220.371094 214.796875 220.371094 227.972656 C 220.371094 241.140625 209.691406 251.828125 196.519531 251.828125 L 178.546875 251.828125 L 178.546875 390.722656 L 196.519531 390.722656 C 209.691406 390.722656 220.371094 401.40625 220.371094 414.574219 C 220.371094 427.753906 209.691406 438.433594 196.519531 438.433594 L 178.546875 438.433594 L 178.546875 505.4375 L 612.117188 505.4375 Z M 532.261719 345.132812 L 511.988281 345.132812 C 502.617188 389.15625 467.875 423.886719 423.851562 433.25 L 423.851562 453.539062 C 423.851562 466.710938 413.167969 477.390625 400 477.390625 C 386.820312 477.390625 376.140625 466.710938 376.140625 453.539062 L 376.140625 433.25 C 332.113281 423.886719 297.382812 389.15625 288.007812 345.132812 L 267.730469 345.132812 C 254.5625 345.132812 243.875 334.449219 243.875 321.269531 C 243.875 308.101562 254.5625 297.417969 267.730469 297.417969 L 288 297.417969 C 297.367188 253.382812 332.109375 218.640625 376.140625 209.273438 L 376.140625 189.007812 C 376.140625 175.835938 386.820312 165.15625 399.996094 165.15625 C 413.167969 165.15625 423.851562 175.835938 423.851562 189.007812 L 423.851562 209.273438 C 467.882812 218.640625 502.621094 253.390625 511.992188 297.417969 L 532.261719 297.417969 C 545.433594 297.417969 556.113281 308.101562 556.113281 321.269531 C 556.113281 334.449219 545.4375 345.132812 532.261719 345.132812 Z M 532.261719 345.132812 " style=" fill-rule:nonzero;fill-opacity:1;" stroke="#FFFFFF" fill="#FFFFFF"/>
<path d="M 800 600.410156 L 800 23.859375 C 800 10.683594 789.316406 0 776.140625 0 L 23.859375 0 C 10.683594 0 0 10.683594 0 23.859375 L 0 600.410156 C 0 613.585938 10.683594 624.265625 23.859375 624.265625 L 776.140625 624.265625 C 789.316406 624.265625 800 613.585938 800 600.410156 Z M 111.859375 251.828125 C 98.679688 251.828125 88 241.140625 88 227.972656 C 88 214.796875 98.679688 204.117188 111.859375 204.117188 L 130.835938 204.117188 L 130.835938 113.257812 C 130.835938 100.078125 141.515625 89.398438 154.691406 89.398438 L 635.980469 89.398438 C 649.15625 89.398438 659.839844 100.078125 659.839844 113.257812 L 659.839844 529.292969 C 659.839844 542.464844 649.15625 553.148438 635.980469 553.148438 L 154.691406 553.148438 C 141.515625 553.148438 130.835938 542.464844 130.835938 529.292969 L 130.835938 438.433594 L 111.859375 438.433594 C 98.679688 438.433594 88 427.753906 88 414.574219 C 88 401.40625 98.679688 390.722656 111.859375 390.722656 L 130.835938 390.722656 L 130.835938 251.828125 Z M 111.859375 251.828125 " style=" fill-rule:nonzero;fill-opacity:1;" stroke="#FFFFFF" fill="#FFFFFF"/>
<path d="M 555.664062 671.976562 L 566.90625 753.402344 C 568.535156 765.203125 578.625 773.992188 590.539062 773.992188 L 689.160156 773.992188 C 701.074219 773.992188 711.164062 765.203125 712.792969 753.402344 L 724.03125 671.976562 Z M 555.664062 671.976562 " style=" fill-rule:nonzero;fill-opacity:1;" stroke="#FFFFFF" fill="#FFFFFF"/>
<path d="M 75.957031 671.976562 L 87.207031 753.402344 C 88.835938 765.203125 98.925781 773.992188 110.835938 773.992188 L 209.457031 773.992188 C 221.371094 773.992188 231.453125 765.203125 233.089844 753.402344 L 244.335938 671.976562 Z M 75.957031 671.976562 " style=" fill-rule:nonzero;fill-opacity:1;" stroke="#FFFFFF" fill="#FFFFFF"/>
</g>
</svg>
