<?xml version="1.0" encoding="iso-8859-1"?>
<!-- Generator: Adobe Illustrator 20.0.0, SVG Export Plug-In . SVG Version: 6.00 Build 0)  -->
<svg xmlns="http://www.w3.org/2000/svg" xmlns:xlink="http://www.w3.org/1999/xlink" version="1.1" id="Layer_1_1_" x="0px" y="0px" viewBox="0 0 64 64" style="enable-background:new 0 0 64 64;" xml:space="preserve" width="512" height="512">

<path style="fill:#CC5636;" d="M53,41.763V51c0,0.404-0.243,0.77-0.617,0.924c-0.373,0.157-0.803,0.07-1.09-0.217l-4-4  C47.105,47.52,47,47.266,47,47v-6.5c0-0.827-0.673-1.5-1.5-1.5S44,39.673,44,40.5v17.086l3.707,3.707C47.895,61.48,48,61.734,48,62  v2h8V45.362L53,41.763z"/>
<path style="fill:#367CCC;" d="M51,5c0-1.654-1.346-3-3-3H16c-1.654,0-3,1.346-3,3v2h38V5z"/>
<path style="fill:#E6DFC1;" d="M45.5,37c1.93,0,3.5,1.57,3.5,3.5v6.086l2,2V9H13v38h29v-6.5C42,38.57,43.57,37,45.5,37z   M41.928,26.154L39,27.618V43c0,0.369-0.203,0.708-0.528,0.882C38.324,43.961,38.162,44,38,44c-0.194,0-0.388-0.057-0.555-0.168  L35,42.202l-2.445,1.63c-0.336,0.225-0.773,0.225-1.109,0L29,42.202l-2.445,1.63c-0.336,0.225-0.773,0.225-1.109,0L23,42.202  l-2.445,1.63c-0.306,0.204-0.702,0.225-1.026,0.05C19.203,43.708,19,43.369,19,43V16c0-2.206,1.794-4,4-4h18  c0.059,0,0.111,0.024,0.167,0.034C41.279,12.025,41.386,12,41.5,12c2.481,0,4.5,2.019,4.5,4.5V27c0,0.369-0.203,0.708-0.528,0.882  s-0.72,0.155-1.026-0.05L41.928,26.154z"/>
<circle style="fill:#CC5636;" cx="29" cy="20" r="2"/>
<path style="fill:#E6DFC1;" d="M21,16v25.132l1.445-0.964c0.336-0.225,0.773-0.225,1.109,0L26,41.798l2.445-1.63  C28.613,40.056,28.807,40,29,40s0.387,0.056,0.555,0.168L32,41.798l2.445-1.63c0.336-0.225,0.773-0.225,1.109,0L37,41.132V27V16.5  V16c0-0.728,0.195-1.411,0.537-2H23C21.897,14,21,14.897,21,16z M30,36h-7v-2h7V36z M30,32h-7v-2h7V32z M30,28h-7v-2h7V28z M35,36  h-3v-2h3V36z M35,32h-3v-2h3V32z M35,28h-3v-2h3V28z M29,16c2.206,0,4,1.794,4,4s-1.794,4-4,4s-4-1.794-4-4S26.794,16,29,16z"/>
<path style="fill:#367CCC;" d="M13,52c0,1.654,1.346,3,3,3h26v-6H13V52z M31,51h2v2h-2V51z"/>
<path style="fill:#E6DFC1;" d="M41.5,14c-1.379,0-2.5,1.121-2.5,2.5v8.882l2.553-1.276c0.322-0.16,0.704-0.137,1.002,0.062  L44,25.132V16.5C44,15.121,42.879,14,41.5,14z"/>
<path style="fill:#1F2833;" d="M53,38.637V5c0-2.757-2.243-5-5-5H16c-2.757,0-5,2.243-5,5v47c0,2.757,2.243,5,5,5h26v1  c0,0.266,0.105,0.52,0.293,0.707L46,62.414V64h1h1v-2c0-0.266-0.105-0.52-0.293-0.707L44,57.586V40.5c0-0.827,0.673-1.5,1.5-1.5  s1.5,0.673,1.5,1.5V47c0,0.266,0.105,0.52,0.293,0.707l4,4c0.287,0.287,0.717,0.374,1.09,0.217C52.757,51.77,53,51.404,53,51v-9.237  l3,3.6V64h1h1V45c0-0.234-0.082-0.461-0.231-0.641L53,38.637z M13,5c0-1.654,1.346-3,3-3h32c1.654,0,3,1.346,3,3v2H13V5z M42,55H16  c-1.654,0-3-1.346-3-3v-3h29V55z M42,40.5V47H13V9h38v39.586l-2-2V40.5c0-1.93-1.57-3.5-3.5-3.5S42,38.57,42,40.5z"/>
<rect x="31" y="51" style="fill:#1F2833;" width="2" height="2"/>
<path style="fill:#1F2833;" d="M45.472,27.882C45.797,27.708,46,27.369,46,27V16.5c0-2.481-2.019-4.5-4.5-4.5  c-0.114,0-0.221,0.025-0.333,0.034C41.111,12.024,41.059,12,41,12H23c-2.206,0-4,1.794-4,4v27c0,0.369,0.203,0.708,0.528,0.882  c0.324,0.175,0.721,0.154,1.026-0.05L23,42.202l2.445,1.63c0.336,0.225,0.773,0.225,1.109,0L29,42.202l2.445,1.63  c0.336,0.225,0.773,0.225,1.109,0L35,42.202l2.445,1.63C37.612,43.943,37.806,44,38,44c0.162,0,0.324-0.039,0.472-0.118  C38.797,43.708,39,43.369,39,43V27.618l2.928-1.464l2.518,1.678C44.752,28.037,45.146,28.056,45.472,27.882z M37,16v0.5V27v14.132  l-1.445-0.964c-0.336-0.225-0.773-0.225-1.109,0L32,41.798l-2.445-1.63C29.387,40.056,29.193,40,29,40s-0.387,0.056-0.555,0.168  L26,41.798l-2.445-1.63c-0.336-0.225-0.773-0.225-1.109,0L21,41.132V16c0-1.103,0.897-2,2-2h14.537C37.195,14.589,37,15.272,37,16z   M44,25.132l-1.445-0.964c-0.298-0.199-0.68-0.223-1.002-0.062L39,25.382V16.5c0-1.379,1.121-2.5,2.5-2.5s2.5,1.121,2.5,2.5V25.132z  "/>
<path style="fill:#1F2833;" d="M29,24c2.206,0,4-1.794,4-4s-1.794-4-4-4s-4,1.794-4,4S26.794,24,29,24z M29,18c1.103,0,2,0.897,2,2  s-0.897,2-2,2s-2-0.897-2-2S27.897,18,29,18z"/>
<rect x="23" y="26" style="fill:#1F2833;" width="7" height="2"/>
<rect x="32" y="26" style="fill:#1F2833;" width="3" height="2"/>
<rect x="23" y="30" style="fill:#1F2833;" width="7" height="2"/>
<rect x="32" y="30" style="fill:#1F2833;" width="3" height="2"/>
<rect x="23" y="34" style="fill:#1F2833;" width="7" height="2"/>
<rect x="32" y="34" style="fill:#1F2833;" width="3" height="2"/>
<rect x="55" y="22" style="fill:#1F2833;" width="2" height="2"/>
<rect x="59" y="22" style="fill:#1F2833;" width="2" height="2"/>
<rect x="59" y="18" style="fill:#1F2833;" width="2" height="2"/>
<rect x="59" y="26" style="fill:#1F2833;" width="2" height="2"/>
<rect x="7" y="22" style="fill:#1F2833;" width="2" height="2"/>
<rect x="3" y="22" style="fill:#1F2833;" width="2" height="2"/>
<rect x="3" y="26" style="fill:#1F2833;" width="2" height="2"/>
<rect x="3" y="18" style="fill:#1F2833;" width="2" height="2"/>
</svg>
