<?xml version="1.0"?>
<svg xmlns="http://www.w3.org/2000/svg" height="512px" viewBox="0 -88 512 512" width="512px"><path d="m127.75 64.125c-35.082031 0-63.625 28.542969-63.625 63.625s28.542969 63.625 63.625 63.625 63.625-28.542969 63.625-63.625-28.542969-63.625-63.625-63.625zm0 112.21875c-26.796875 0-48.59375-21.800781-48.59375-48.59375 0-26.796875 21.796875-48.59375 48.59375-48.59375 26.792969 0 48.59375 21.796875 48.59375 48.59375 0 26.792969-21.800781 48.59375-48.59375 48.59375zm0 0" fill="#98f8cd"/><path d="m127.75 96.1875c-17.402344 0-31.5625 14.160156-31.5625 31.5625s14.160156 31.5625 31.5625 31.5625 31.5625-14.160156 31.5625-31.5625-14.160156-31.5625-31.5625-31.5625zm0 48.09375c-9.117188 0-16.53125-7.414062-16.53125-16.53125s7.414062-16.53125 16.53125-16.53125 16.53125 7.414062 16.53125 16.53125-7.414062 16.53125-16.53125 16.53125zm0 0" fill="#98f8cd"/><path d="m99.324219 203.257812c-31.242188-11.769531-52.230469-42.113281-52.230469-75.507812 0-44.476562 36.179688-80.65625 80.65625-80.65625 12.730469 0 24.910156 2.875 36.195312 8.554688 3.707032 1.867187 8.226563.371093 10.089844-3.335938 1.867188-3.707031.375-8.222656-3.332031-10.089844-13.402344-6.742187-27.855469-10.160156-42.953125-10.160156-52.761719 0-95.6875 42.925781-95.6875 95.6875 0 39.617188 24.902344 75.613281 61.964844 89.570312 3.832031 1.445313 8.238281-.550781 9.679687-4.382812 1.464844-3.882812-.5-8.21875-4.382812-9.679688zm0 0" fill="#98f8cd"/><path d="m208.40625 127.75c0 24.824219-11.183594 47.902344-30.683594 63.3125-3.257812 2.574219-3.808594 7.300781-1.234375 10.554688 2.539063 3.210937 7.339844 3.777343 10.554688 1.238281 23.128906-18.28125 36.394531-45.65625 36.394531-75.105469 0-23.648438-8.699219-46.351562-24.488281-63.929688-2.777344-3.089843-7.527344-3.339843-10.613281-.566406-3.089844 2.773438-3.339844 7.523438-.566407 10.613282 13.308594 14.8125 20.636719 33.949218 20.636719 53.882812zm0 0" fill="#98f8cd"/><path d="m504.484375 240.46875h-316.671875c40.242188-21.527344 67.6875-63.976562 67.6875-112.71875 0-70.441406-57.308594-127.75-127.75-127.75s-127.75 57.308594-127.75 127.75v80.15625c0 70.441406 57.308594 127.75 127.75 127.75h189.371094c4.148437 0 7.511718-3.363281 7.511718-7.515625s-3.363281-7.515625-7.511718-7.515625h-189.371094c-62.15625 0-112.71875-50.566406-112.71875-112.71875v-20.078125c21.53125 40.238281 63.980469 67.671875 112.71875 67.671875h64.625v32.5625c0 4.152344 3.367188 7.515625 7.515625 7.515625s7.515625-3.363281 7.515625-7.515625v-32.5625h49.09375v32.5625c0 4.152344 3.367188 7.515625 7.515625 7.515625s7.515625-3.363281 7.515625-7.515625v-32.5625h49.09375v32.5625c0 4.152344 3.367188 7.515625 7.515625 7.515625s7.515625-3.363281 7.515625-7.515625v-32.5625h49.09375v32.5625c0 4.152344 3.367188 7.515625 7.515625 7.515625 4.152344 0 7.515625-3.363281 7.515625-7.515625v-32.5625h20.933594l26.054687 32.5625-26.054687 32.5625h-68.527344c-4.148438 0-7.515625 3.363281-7.515625 7.515625s3.367187 7.515625 7.515625 7.515625h152.296875c4.152344 0 7.515625-3.363281 7.515625-7.515625v-80.15625c0-4.152344-3.363281-7.515625-7.515625-7.515625zm-489.453125-112.71875c0-62.152344 50.5625-112.71875 112.71875-112.71875 62.152344 0 112.71875 50.566406 112.71875 112.71875s-50.566406 112.71875-112.71875 112.71875c-62.15625 0-112.71875-50.566406-112.71875-112.71875zm447.226562 165.007812c2.195313-2.746093 2.195313-6.644531 0-9.390624l-22.292968-27.867188h57.003906v65.125h-57.003906zm0 0" fill="#98f8cd"/></svg>
